# xmcd CD database file
#
# Track frame offsets:
#	150
#	16388
#	31665
#	50288
#	66075
#	84339
#	109527
#	124604
#	146851
#	159550
#	171044
#	184973
#	201462
#	216118
#	233755
#	256070
#	273994
#	288892
#	305374
#	323764
#
# Disc length: 4529 seconds
#
# Revision: 0
# Processed by: cddbd v1.5.2PL0 Copyright (c) Steve Scherf et al.
# Submitted via: CDex 2.11
#
DISCID=1211af14
DTITLE=Various Artist - Just The Hits - Country CD 2
DYEAR=2019
DGENRE=Country
TTITLE0=Kip Moore  - Somethin' 'Bout A Truck
TTITLE1=Canaan Smith  - Love You Like That - Radio Version
TTITLE2=Sugarland - Stuck Like Glue - Album Version
TTITLE3=Josh Turner  - Would You Go With Me - Edit
TTITLE4=Trisha Yearwood - How Do I Live - Songbook Version
TTITLE5=Brothers Osborne - Stay A Little Longer
TTITLE6=The McClymonts - Like We Used To
TTITLE7=Reba McEntire - Fancy
TTITLE8=Eric Paslay - Friday Night - Album Version
TTITLE9=Conway Twitty, Loretta Lynn  - Louisiana Woman, Mississippi Man - Single Version
TTITLE10=Joe Nichols - Gimmie That Girl
TTITLE11=Maddie and Tae - Girl In A Country Song
TTITLE12=Chely Wright - Single White Female
TTITLE13=Gary Allan - Get Off On The Pain - Album Version
TTITLE14=Amber Lawrence and Travis Collins - Wagon Wheel
TTITLE15=Shooter Jennings - Walk Of Life - Album Version
TTITLE16=Beccy Cole - Sweet Rebecca
TTITLE17=Judah Kelly - Found
TTITLE18=Vince Gill - Love's Standin' - Album Version
TTITLE19=Tracy Byrd  - I'm From The Country
EXTD=YEAR: 2019
EXTT0=
EXTT1=
EXTT2=
EXTT3=
EXTT4=
EXTT5=
EXTT6=
EXTT7=
EXTT8=
EXTT9=
EXTT10=
EXTT11=
EXTT12=
EXTT13=
EXTT14=
EXTT15=
EXTT16=
EXTT17=
EXTT18=
EXTT19=
PLAYORDER=
